name ./resultDataOpenSim/trcMotMarkerGrf/sub09/grf-12-05.mot
datacolumns 19
datarows 25
range 0.47200000 0.56800000
endheader

                time	     ground_force_vx	     ground_force_vy	     ground_force_vz	     ground_force_px	     ground_force_py	     ground_force_pz	   l_ground_force_vx	   l_ground_force_vy	   l_ground_force_vz	   l_ground_force_px	   l_ground_force_py	   l_ground_force_pz	     ground_torque_x	     ground_torque_y	     ground_torque_z	   l_ground_torque_x	   l_ground_torque_y	   l_ground_torque_z	
          0.47200000	         42.90950652	        414.37555848	        -21.79672648	         -0.64248089	          0.00000000	          0.04235001	          0.00000000	          0.00000000	          0.00000000	          0.00000000	          0.00000000	          0.00000000	          0.00000000	          6.06834601	          0.00000000	          0.00000000	          0.00000000	          0.00000000	
          0.47600000	         47.00567322	        427.16451997	        -22.59746143	         -0.64146914	          0.00000000	          0.04305454	          0.00000000	          0.00000000	          0.00000000	          0.00000000	          0.00000000	          0.00000000	          0.00000000	          6.11603111	          0.00000000	          0.00000000	          0.00000000	          0.00000000	
          0.48000000	         50.87760690	        441.41761070	        -23.06199546	         -0.64072058	          0.00000000	          0.04371113	          0.00000000	          0.00000000	          0.00000000	          0.00000000	          0.00000000	          0.00000000	          0.00000000	          6.21654258	          0.00000000	          0.00000000	          0.00000000	          0.00000000	
          0.48400000	         54.37367969	        456.91574649	        -23.39408617	         -0.64004583	          0.00000000	          0.04434096	          0.00000000	          0.00000000	          0.00000000	          0.00000000	          0.00000000	          0.00000000	          0.00000000	          6.34398483	          0.00000000	          0.00000000	          0.00000000	          0.00000000	
          0.48800000	         57.38644116	        473.36371565	        -23.80585238	         -0.63916467	          0.00000000	          0.04496959	          0.00000000	          0.00000000	          0.00000000	          0.00000000	          0.00000000	          0.00000000	          0.00000000	          6.45810447	          0.00000000	          0.00000000	          0.00000000	          0.00000000	
          0.49200000	         59.89595051	        490.63608381	        -24.46369598	         -0.63801953	          0.00000000	          0.04556880	          0.00000000	          0.00000000	          0.00000000	          0.00000000	          0.00000000	          0.00000000	          0.00000000	          6.51580902	          0.00000000	          0.00000000	          0.00000000	          0.00000000	
          0.49600000	         62.01741696	        508.79223704	        -25.44692860	         -0.63684499	          0.00000000	          0.04606076	          0.00000000	          0.00000000	          0.00000000	          0.00000000	          0.00000000	          0.00000000	          0.00000000	          6.48413969	          0.00000000	          0.00000000	          0.00000000	          0.00000000	
          0.50000000	         63.94758385	        527.83192117	        -26.72990764	         -0.63589319	          0.00000000	          0.04638353	          0.00000000	          0.00000000	          0.00000000	          0.00000000	          0.00000000	          0.00000000	          0.00000000	          6.35120412	          0.00000000	          0.00000000	          0.00000000	          0.00000000	
          0.50400000	         65.85819493	        547.46713673	        -28.18534332	         -0.63514583	          0.00000000	          0.04653198	          0.00000000	          0.00000000	          0.00000000	          0.00000000	          0.00000000	          0.00000000	          0.00000000	          6.13209563	          0.00000000	          0.00000000	          0.00000000	          0.00000000	
          0.50800000	         67.87542163	        567.18781495	        -29.60371709	         -0.63434022	          0.00000000	          0.04654801	          0.00000000	          0.00000000	          0.00000000	          0.00000000	          0.00000000	          0.00000000	          0.00000000	          5.86782934	          0.00000000	          0.00000000	          0.00000000	          0.00000000	
          0.51200000	         70.12305047	        586.58765560	        -30.72545827	         -0.63335911	          0.00000000	          0.04645545	          0.00000000	          0.00000000	          0.00000000	          0.00000000	          0.00000000	          0.00000000	          0.00000000	          5.61691150	          0.00000000	          0.00000000	          0.00000000	          0.00000000	
          0.51600000	         72.71009734	        605.58660522	        -31.27317414	         -0.63236420	          0.00000000	          0.04624660	          0.00000000	          0.00000000	          0.00000000	          0.00000000	          0.00000000	          0.00000000	          0.00000000	          5.44131603	          0.00000000	          0.00000000	          0.00000000	          0.00000000	
          0.52000000	         75.67306424	        624.27008988	        -31.00441444	         -0.63158489	          0.00000000	          0.04590516	          0.00000000	          0.00000000	          0.00000000	          0.00000000	          0.00000000	          0.00000000	          0.00000000	          5.39052855	          0.00000000	          0.00000000	          0.00000000	          0.00000000	
          0.52400000	         78.96971782	        642.52513844	        -29.79649244	         -0.63104495	          0.00000000	          0.04545519	          0.00000000	          0.00000000	          0.00000000	          0.00000000	          0.00000000	          0.00000000	          0.00000000	          5.48810356	          0.00000000	          0.00000000	          0.00000000	          0.00000000	
          0.52800000	         82.53534115	        659.94147153	        -27.70362670	         -0.63050237	          0.00000000	          0.04496616	          0.00000000	          0.00000000	          0.00000000	          0.00000000	          0.00000000	          0.00000000	          0.00000000	          5.72445369	          0.00000000	          0.00000000	          0.00000000	          0.00000000	
          0.53200000	         86.32220071	        676.16578647	        -24.95403992	         -0.62969315	          0.00000000	          0.04450277	          0.00000000	          0.00000000	          0.00000000	          0.00000000	          0.00000000	          0.00000000	          0.00000000	          6.05747589	          0.00000000	          0.00000000	          0.00000000	          0.00000000	
          0.53600000	         90.30680236	        691.30861811	        -21.91679384	         -0.62866178	          0.00000000	          0.04407779	          0.00000000	          0.00000000	          0.00000000	          0.00000000	          0.00000000	          0.00000000	          0.00000000	          6.42020860	          0.00000000	          0.00000000	          0.00000000	          0.00000000	
          0.54000000	         94.50645955	        705.85026010	        -19.05287457	         -0.62773364	          0.00000000	          0.04366627	          0.00000000	          0.00000000	          0.00000000	          0.00000000	          0.00000000	          0.00000000	          0.00000000	          6.73329569	          0.00000000	          0.00000000	          0.00000000	          0.00000000	
          0.54400000	         98.96702681	        720.08444883	        -16.83983906	         -0.62715225	          0.00000000	          0.04326677	          0.00000000	          0.00000000	          0.00000000	          0.00000000	          0.00000000	          0.00000000	          0.00000000	          6.91982563	          0.00000000	          0.00000000	          0.00000000	          0.00000000	
          0.54800000	        103.69485842	        733.74779481	        -15.66103732	         -0.62679396	          0.00000000	          0.04292789	          0.00000000	          0.00000000	          0.00000000	          0.00000000	          0.00000000	          0.00000000	          0.00000000	          6.92023724	          0.00000000	          0.00000000	          0.00000000	          0.00000000	
          0.55200000	        108.63470086	        746.27398780	        -15.69431315	         -0.62632024	          0.00000000	          0.04270720	          0.00000000	          0.00000000	          0.00000000	          0.00000000	          0.00000000	          0.00000000	          0.00000000	          6.70468349	          0.00000000	          0.00000000	          0.00000000	          0.00000000	
          0.55600000	        113.76419606	        757.35246846	        -16.86916928	         -0.62558619	          0.00000000	          0.04261407	          0.00000000	          0.00000000	          0.00000000	          0.00000000	          0.00000000	          0.00000000	          0.00000000	          6.27995274	          0.00000000	          0.00000000	          0.00000000	          0.00000000	
          0.56000000	        119.17607472	        767.12812033	        -18.91160776	         -0.62480017	          0.00000000	          0.04259855	          0.00000000	          0.00000000	          0.00000000	          0.00000000	          0.00000000	          0.00000000	          0.00000000	          5.68882071	          0.00000000	          0.00000000	          0.00000000	          0.00000000	
          0.56400000	        125.00143707	        775.83402197	        -21.42994242	         -0.62424716	          0.00000000	          0.04259766	          0.00000000	          0.00000000	          0.00000000	          0.00000000	          0.00000000	          0.00000000	          0.00000000	          5.00177500	          0.00000000	          0.00000000	          0.00000000	          0.00000000	
          0.56800000	        131.27068651	        783.31629142	        -23.99047281	         -0.62393654	          0.00000000	          0.04258703	          0.00000000	          0.00000000	          0.00000000	          0.00000000	          0.00000000	          0.00000000	          0.00000000	          4.30334929	          0.00000000	          0.00000000	          0.00000000	          0.00000000	
